<svg width="45" height="45" viewBox="0 0 45 45" fill="none" xmlns="http://www.w3.org/2000/svg">
<rect width="45" height="45" rx="12" fill="#027335"/>
<g clip-path="url(#clip0_0_687)">
<path d="M29.1776 27.8443C27.6362 27.8428 26.3855 29.0912 26.3839 30.6326C26.3824 32.174 27.6308 33.4247 29.1722 33.4262C30.7136 33.4277 31.9643 32.1794 31.9659 30.638V30.6353C31.9644 29.0955 30.7173 27.8473 29.1776 27.8443Z" fill="white"/>
<path d="M34.1278 14.4797C34.061 14.4668 33.9932 14.4602 33.9251 14.4601H16.9318L16.6627 12.6596C16.495 11.4638 15.4722 10.5741 14.2647 10.5738H12.0766C11.482 10.5738 11 11.0557 11 11.6503C11 12.2449 11.482 12.7269 12.0766 12.7269H14.2673C14.4042 12.7259 14.5201 12.8278 14.5365 12.9637L16.1944 24.3267C16.4217 25.7706 17.6636 26.8358 19.1253 26.8405H30.3241C31.7313 26.8423 32.9454 25.8533 33.2281 24.4747L34.9802 15.7412C35.0931 15.1575 34.7115 14.5927 34.1278 14.4797Z" fill="white"/>
<path d="M22.3405 30.5158C22.2749 29.0196 21.0401 27.8418 19.5425 27.847C18.0023 27.9092 16.8042 29.2082 16.8665 30.7484C16.9262 32.2262 18.1283 33.4007 19.6071 33.4262H19.6744C21.2143 33.3587 22.4079 32.0557 22.3405 30.5158Z" fill="white"/>
</g>
<defs>
<clipPath id="clip0_0_687">
<rect width="24" height="24" fill="white" transform="translate(11 10)"/>
</clipPath>
</defs>
</svg>
