<svg width="32" height="36" viewBox="0 0 32 36" fill="none" xmlns="http://www.w3.org/2000/svg">
<path d="M0 0H32V24C32 30.6274 26.6274 36 20 36H0V0Z" fill="white"/>
<path d="M25.403 11.5886C24.8581 10.8813 24.1534 10.3131 23.3465 9.93073C22.5397 9.54832 21.6538 9.36253 20.7613 9.38858C19.8916 9.40754 19.0393 9.63525 18.2761 10.0525C17.5128 10.4698 16.8611 11.0644 16.3757 11.7863C16.2455 11.9785 16.1199 12.1776 16 12.3817C15.88 12.1776 15.7544 11.9785 15.6242 11.7863C15.1389 11.0644 14.4871 10.4698 13.7239 10.0525C12.9607 9.63519 12.1083 9.40747 11.2387 9.3885C10.3464 9.36382 9.4609 9.55022 8.6543 9.93254C7.84769 10.3149 7.14278 10.8823 6.59698 11.5886C5.07481 13.5725 5.13965 16.3272 6.76198 18.6066C9.71499 22.7554 15.5552 26.4044 15.8023 26.5575C15.8616 26.5943 15.9301 26.6139 16 26.6139C16.0699 26.6139 16.1384 26.5943 16.1977 26.5575C16.4447 26.4042 22.2849 22.7553 25.2379 18.6065C26.8603 16.3272 26.9252 13.5725 25.403 11.5886Z" fill="#FF6464"/>
</svg>
